<svg xmlns="http://www.w3.org/2000/svg" viewBox="0 0 490.91 490.91"><defs><style>.cls-1{fill:#fff;}.cls-2{fill:#010101;}</style></defs><title>Asset 3</title><g id="Layer_2" data-name="Layer 2"><g id="Layer_1-2" data-name="Layer 1"><circle class="cls-1" cx="245.45" cy="245.45" r="245.45"/><g id="Layer_2-2" data-name="Layer 2"><g id="Layer_1-2-2" data-name="Layer 1-2"><path class="cls-2" d="M362.77,115.21A22.93,22.93,0,0,0,361,126.92V129a13.68,13.68,0,0,0,11.2-6,25.75,25.75,0,0,1-2.47,15.32s25.33-12.51,6.94-42.32a20.21,20.21,0,0,1-3.15,7.28,31.56,31.56,0,0,1-5.41,5.84A23.26,23.26,0,0,0,362.77,115.21Z"/><path class="cls-2" d="M358.94,113.25a27.09,27.09,0,0,1,6.34-7.24,29.06,29.06,0,0,0,4.68-5A17,17,0,0,0,372.77,94a16.66,16.66,0,0,1,2.52-6.6c-2.09-10.44-9.37-27.76-35.17-27.76,0,0-38.32-5.33-59.52,44a37.56,37.56,0,0,0,8.51,14.3c7.15,7.37,17.29,9.71,28,12.18a70.1,70.1,0,0,1,27.25,10.43,56.21,56.21,0,0,1,9.33,8.64c.17-2.42.42-5,.76-7.57a2.54,2.54,0,0,0,.3-1.45,59,59,0,0,0,2-13.07A26.92,26.92,0,0,1,358.94,113.25Zm-7.5-23.58a6.39,6.39,0,1,1-6.38-6.39A6.38,6.38,0,0,1,351.44,89.67Z"/><path class="cls-2" d="M107.52,425.08l4.81,6.39,12.78-12.26s22.52,6.09,103.41-142.93l7.29-3.41s13.83,6.35,32.74-5.79a45.08,45.08,0,0,0,2-30.18s11.87,14.43,1,29.29l.47.81,7.45,1.32,7.06-2.09,51.65,28.1a8.55,8.55,0,1,0,8.3-14.94l-45.68-25L303,241a126,126,0,0,0,50.24-80.89v-4.26a49,49,0,0,0-11.71-12.14A67.25,67.25,0,0,0,316,134c-10.86-2.51-22.06-5.11-30.1-13.37A41.53,41.53,0,0,1,276.93,106c-11.24,4.09-54,23.89-74.76,95.12L161.3,178.82A8.51,8.51,0,0,0,153,193.59l42.57,23.12c-6.85,9.88-20.56,31.43-14.56,37.43,9.67-10.69,27.17-32.23,35.21-54.84,0,0-16,47.3-35,59.27-5.45,12.51-23.33,56-1.78,40.91l8.51-4a430,430,0,0,0,52.29-91.11S220.65,272,188.55,298C179,317.24,156.7,354.32,107.52,425.08Z"/></g></g></g></g></svg>